<?xml version="1.0" encoding="UTF-8"?>
<svg viewBox="0 0 540 600" xmlns="http://www.w3.org/2000/svg" role="img" aria-labelledby="beehive-teaser-title beehive-teaser-desc">
  <title id="beehive-teaser-title">AV-04 · The Beehive · TEASER variant · brand-v2 · author-v1 · 2026-05-19</title>
  <desc id="beehive-teaser-desc">Public-tier teaser variant of the canonical beehive. Structural signature only: 13-hex honeycomb arranged 3-2-3-2-3 with center hex gold-emphasized (gestures to the data substrate · unlabeled). Strips per-hex functional-group labels + BPF flow column + MDM/CDM naming present in the canonical. Reader recognizes the framework shape exists without leaving with the framework itself. Sibling to canonical beehive.svg at boss/assets/ which remains the gated-tier home for articles + Phase 0 + engagement. Per idigdata memo-087 IP-gate-fidelity discipline (peak/teaser pattern · same shape as engagement-roadmap-public adjacent precedent).</desc>

  <!-- Background · cream substrate -->
  <rect width="540" height="600" fill="#FBF9F4"/>

  <!-- Title -->
  <text x="270" y="50" text-anchor="middle" font-weight="900" font-size="28" fill="#1F2937" letter-spacing="-0.3" font-family="'Helvetica Neue', 'Arial Black', Impact, system-ui, sans-serif">THE BEEHIVE</text>
  <text x="270" y="78" text-anchor="middle" font-style="italic" font-size="14" fill="#6B6860" font-family="Georgia, 'Times New Roman', serif">Workforce + functional groups · structural frame</text>

  <!-- 13-hex honeycomb · 3-2-3-2-3 layout · same coordinates as canonical · all hexes unlabeled · center gold -->
  <!-- Hex polygon points (r=40 reference): 0,-40 34.6,-20 34.6,20 0,40 -34.6,20 -34.6,-20 -->

  <!-- Row 1 (3 hexes · top) -->
  <polygon points="146,150 180.6,170 180.6,210 146,230 111.4,210 111.4,170" fill="#FBF9F4" stroke="#1F2937" stroke-width="1.8"/>
  <polygon points="215.4,150 250,170 250,210 215.4,230 180.8,210 180.8,170" fill="#FBF9F4" stroke="#1F2937" stroke-width="1.8"/>
  <polygon points="284.8,150 319.4,170 319.4,210 284.8,230 250.2,210 250.2,170" fill="#FBF9F4" stroke="#1F2937" stroke-width="1.8"/>

  <!-- Row 2 (2 hexes · offset right) -->
  <polygon points="180.6,210 215.2,230 215.2,270 180.6,290 146,270 146,230" fill="#FBF9F4" stroke="#1F2937" stroke-width="1.8"/>
  <polygon points="250,210 284.6,230 284.6,270 250,290 215.4,270 215.4,230" fill="#FBF9F4" stroke="#1F2937" stroke-width="1.8"/>

  <!-- Row 3 (3 hexes · CENTER GOLD = data substrate gesture · unlabeled) -->
  <polygon points="146,270 180.6,290 180.6,330 146,350 111.4,330 111.4,290" fill="#FBF9F4" stroke="#1F2937" stroke-width="1.8"/>
  <polygon points="215.4,270 250,290 250,330 215.4,350 180.8,330 180.8,290" fill="#FACC15" stroke="#1F2937" stroke-width="2.5"/>
  <polygon points="284.8,270 319.4,290 319.4,330 284.8,350 250.2,330 250.2,290" fill="#FBF9F4" stroke="#1F2937" stroke-width="1.8"/>

  <!-- Row 4 (2 hexes · offset right) -->
  <polygon points="180.6,330 215.2,350 215.2,390 180.6,410 146,390 146,350" fill="#FBF9F4" stroke="#1F2937" stroke-width="1.8"/>
  <polygon points="250,330 284.6,350 284.6,390 250,410 215.4,390 215.4,350" fill="#FBF9F4" stroke="#1F2937" stroke-width="1.8"/>

  <!-- Row 5 (3 hexes · bottom) -->
  <polygon points="146,390 180.6,410 180.6,450 146,470 111.4,450 111.4,410" fill="#FBF9F4" stroke="#1F2937" stroke-width="1.8"/>
  <polygon points="215.4,390 250,410 250,450 215.4,470 180.8,450 180.8,410" fill="#FBF9F4" stroke="#1F2937" stroke-width="1.8"/>
  <polygon points="284.8,390 319.4,410 319.4,450 284.8,470 250.2,450 250.2,410" fill="#FBF9F4" stroke="#1F2937" stroke-width="1.8"/>

  <!-- Bottom caption -->
  <line x1="135" y1="525" x2="405" y2="525" stroke="#7A756A" stroke-width="0.8"/>
  <text x="270" y="548" text-anchor="middle" font-style="italic" font-size="12" fill="#6B6860" font-family="Georgia, 'Times New Roman', serif">Standard frame · bespoke fill per operator.</text>
  <text x="270" y="568" text-anchor="middle" font-style="italic" font-size="11" fill="#6B6860" font-family="Georgia, 'Times New Roman', serif">Full mapping available via engagement.</text>
</svg>
