<?xml version="1.0" encoding="UTF-8"?>
<svg viewBox="0 0 1100 808" xmlns="http://www.w3.org/2000/svg" role="img" aria-labelledby="av07-title av07-desc">
  <title id="av07-title">AV-07 · The Engagement Roadmap · STATIC SVG sibling · brand-v2 · author-v1 · 2026-05-17</title>
  <desc id="av07-desc">Standalone SVG snapshot of the BOSS engagement roadmap · Bundled view · 8 lanes (PMO orchestration + 7 BOSS delivery stages: Design · Build · Deploy and Test · UAT · Mock Golive · Golive · Stable state/CI-CD) · dual-portfolio density curves (Transformation Portfolio charcoal · Production Agentics Portfolio gold) over a 24-month example engagement window · 14-day sprint hashes along the bottom axis · gold go-live marker at month 20 · CI/CD-by-design loop band below axis encoding stable-state-opens-next-build-plan. Sibling to engagement-roadmap.html (canonical/gated · click-to-expand substance) and engagement-roadmap-public.html (public-tier HTML variant). Static SVG is the most universal sibling — embeddable in articles, decks, PDFs, prospect collateral with zero runtime dependencies. IP-gating clean: density curves surface gradient existence + relative weight only (not calibration math). Author-v1 baked 2026-05-17 from canonical engagement-roadmap.html v2.4.6 config via deterministic Python emit.</desc>
  <defs>
    <marker id="av07-ci-loop-arrow" viewBox="0 0 10 10" refX="9" refY="5" markerWidth="10" markerHeight="10" orient="auto">
      <path d="M 0 0 L 10 5 L 0 10 z" fill="#FACC15" stroke="#1F2937" stroke-width="0.6"/>
    </marker>
  </defs>
  <rect width="1100" height="808" fill="#FBF9F4"/>
  <text x="550.0" y="42" text-anchor="middle" font-weight="900" font-size="26" fill="#1F2937" letter-spacing="-0.3" font-family="'Helvetica Neue', 'Arial Black', Impact, system-ui, sans-serif">THE ENGAGEMENT ROADMAP</text>
  <text x="550.0" y="66" text-anchor="middle" font-style="italic" font-size="13" fill="#6B6860" font-family="Georgia, 'Times New Roman', serif">8-lane delivery substrate · dual-portfolio density · 24-month engagement · CI/CD-by-design loop</text>
  <g>
    <rect x="660" y="69" width="14" height="9" fill="#1F2937" opacity="0.65" rx="1"/>
    <text x="678" y="78" font-size="11" fill="#6B6860" font-family="system-ui, -apple-system, sans-serif">Transformation Portfolio</text>
    <rect x="840" y="69" width="14" height="9" fill="#FACC15" opacity="0.85" rx="1"/>
    <text x="858" y="78" font-size="11" fill="#6B6860" font-family="system-ui, -apple-system, sans-serif">Production Agentics Portfolio</text>
  </g>
  <rect x="150" y="120" width="914" height="64" fill="#FFFFFF"/>
  <rect x="150" y="184" width="914" height="64" fill="#F4F2EA"/>
  <rect x="150" y="248" width="914" height="64" fill="#FFFFFF"/>
  <rect x="150" y="312" width="914" height="64" fill="#F4F2EA"/>
  <rect x="150" y="376" width="914" height="64" fill="#FFFFFF"/>
  <rect x="150" y="440" width="914" height="64" fill="#F4F2EA"/>
  <rect x="150" y="504" width="914" height="64" fill="#FFFFFF"/>
  <rect x="150" y="568" width="914" height="64" fill="#F4F2EA"/>
  <rect x="0" y="120" width="150" height="512" fill="#FBF9F4"/>
  <line x1="150" y1="120" x2="150" y2="632" stroke="#7A756A" stroke-width="1" stroke-opacity="0.5"/>
  <line x1="0" y1="120" x2="1064" y2="120" stroke="#E5E4DD" stroke-width="1"/>
  <line x1="0" y1="184" x2="1064" y2="184" stroke="#E5E4DD" stroke-width="1"/>
  <line x1="0" y1="248" x2="1064" y2="248" stroke="#E5E4DD" stroke-width="1"/>
  <line x1="0" y1="312" x2="1064" y2="312" stroke="#E5E4DD" stroke-width="1"/>
  <line x1="0" y1="376" x2="1064" y2="376" stroke="#E5E4DD" stroke-width="1"/>
  <line x1="0" y1="440" x2="1064" y2="440" stroke="#E5E4DD" stroke-width="1"/>
  <line x1="0" y1="504" x2="1064" y2="504" stroke="#E5E4DD" stroke-width="1"/>
  <line x1="0" y1="568" x2="1064" y2="568" stroke="#E5E4DD" stroke-width="1"/>
  <line x1="0" y1="632" x2="1064" y2="632" stroke="#E5E4DD" stroke-width="1"/>
  <text x="134" y="148.0" text-anchor="end" dominant-baseline="middle" font-weight="900" font-size="15" fill="#1F2937" letter-spacing="0.5" font-family="'Helvetica Neue', 'Arial Black', Impact, system-ui, sans-serif">PMO</text>
  <text x="134" y="165.0" text-anchor="end" dominant-baseline="middle" font-weight="700" font-size="9" fill="#6B6860" letter-spacing="0.08em" font-family="system-ui, -apple-system, sans-serif">ORCHESTRATION</text>
  <text x="134" y="212.0" text-anchor="end" dominant-baseline="middle" font-weight="900" font-size="14" fill="#1F2937" letter-spacing="0.5" font-family="'Helvetica Neue', 'Arial Black', Impact, system-ui, sans-serif">1. Design</text>
  <text x="134" y="229.0" text-anchor="end" dominant-baseline="middle" font-weight="700" font-size="9" fill="#6B6860" letter-spacing="0.08em" font-family="system-ui, -apple-system, sans-serif">BOSS STAGE</text>
  <text x="134" y="276.0" text-anchor="end" dominant-baseline="middle" font-weight="900" font-size="14" fill="#1F2937" letter-spacing="0.5" font-family="'Helvetica Neue', 'Arial Black', Impact, system-ui, sans-serif">2. Build</text>
  <text x="134" y="293.0" text-anchor="end" dominant-baseline="middle" font-weight="700" font-size="9" fill="#6B6860" letter-spacing="0.08em" font-family="system-ui, -apple-system, sans-serif">BOSS STAGE</text>
  <text x="134" y="340.0" text-anchor="end" dominant-baseline="middle" font-weight="900" font-size="14" fill="#1F2937" letter-spacing="0.5" font-family="'Helvetica Neue', 'Arial Black', Impact, system-ui, sans-serif">3. Deploy and Test</text>
  <text x="134" y="357.0" text-anchor="end" dominant-baseline="middle" font-weight="700" font-size="9" fill="#6B6860" letter-spacing="0.08em" font-family="system-ui, -apple-system, sans-serif">BOSS STAGE</text>
  <text x="134" y="404.0" text-anchor="end" dominant-baseline="middle" font-weight="900" font-size="14" fill="#1F2937" letter-spacing="0.5" font-family="'Helvetica Neue', 'Arial Black', Impact, system-ui, sans-serif">4. UAT</text>
  <text x="134" y="421.0" text-anchor="end" dominant-baseline="middle" font-weight="700" font-size="9" fill="#6B6860" letter-spacing="0.08em" font-family="system-ui, -apple-system, sans-serif">BOSS STAGE</text>
  <text x="134" y="468.0" text-anchor="end" dominant-baseline="middle" font-weight="900" font-size="14" fill="#1F2937" letter-spacing="0.5" font-family="'Helvetica Neue', 'Arial Black', Impact, system-ui, sans-serif">5. Mock Golive</text>
  <text x="134" y="485.0" text-anchor="end" dominant-baseline="middle" font-weight="700" font-size="9" fill="#6B6860" letter-spacing="0.08em" font-family="system-ui, -apple-system, sans-serif">BOSS STAGE</text>
  <text x="134" y="532.0" text-anchor="end" dominant-baseline="middle" font-weight="900" font-size="14" fill="#1F2937" letter-spacing="0.5" font-family="'Helvetica Neue', 'Arial Black', Impact, system-ui, sans-serif">6. Golive</text>
  <text x="134" y="549.0" text-anchor="end" dominant-baseline="middle" font-weight="700" font-size="9" fill="#6B6860" letter-spacing="0.08em" font-family="system-ui, -apple-system, sans-serif">BOSS STAGE</text>
  <text x="134" y="596.0" text-anchor="end" dominant-baseline="middle" font-weight="900" font-size="14" fill="#1F2937" letter-spacing="0.5" font-family="'Helvetica Neue', 'Arial Black', Impact, system-ui, sans-serif">7. Stable state · CI/CD</text>
  <text x="134" y="613.0" text-anchor="end" dominant-baseline="middle" font-weight="700" font-size="9" fill="#6B6860" letter-spacing="0.08em" font-family="system-ui, -apple-system, sans-serif">BOSS STAGE</text>
  <rect x="150.0" y="141.6" width="914.0" height="36.400000000000006" fill="#1F2937" fill-opacity="0.75" rx="1"/>
  <path d="M 150.0 242 L 150.0 210.8 L 188.08333333333331 195.2 L 226.16666666666666 190.0 L 264.25 190.0 L 302.3333333333333 190.0 L 340.4166666666667 195.2 L 378.5 200.4 L 416.58333333333337 205.6 L 454.66666666666663 210.8 L 492.75 216.0 L 530.8333333333334 221.2 L 568.9166666666666 221.2 L 607.0 226.4 L 645.0833333333333 226.4 L 683.1666666666667 226.4 L 721.25 226.4 L 759.3333333333333 226.4 L 797.4166666666667 226.4 L 835.5 226.4 L 873.5833333333333 226.4 L 911.6666666666667 226.4 L 949.75 226.4 L 987.8333333333333 226.4 L 1025.9166666666667 226.4 L 1064.0 226.4 L 1064.0 242 Z" fill="#1F2937" fill-opacity="0.45" stroke="#1F2937" stroke-width="1" stroke-opacity="0.7"/>
  <path d="M 150.0 242 L 150.0 242 L 188.08333333333331 242 L 226.16666666666666 242 L 264.25 231.6 L 302.3333333333333 221.2 L 340.4166666666667 210.8 L 378.5 200.4 L 416.58333333333337 190.0 L 454.66666666666663 190.0 L 492.75 190.0 L 530.8333333333334 195.2 L 568.9166666666666 205.6 L 607.0 216.0 L 645.0833333333333 221.2 L 683.1666666666667 226.4 L 721.25 226.4 L 759.3333333333333 231.6 L 797.4166666666667 231.6 L 835.5 231.6 L 873.5833333333333 231.6 L 911.6666666666667 231.6 L 949.75 231.6 L 987.8333333333333 231.6 L 1025.9166666666667 231.6 L 1064.0 231.6 L 1064.0 242 Z" fill="#FACC15" fill-opacity="0.45" stroke="#FACC15" stroke-width="1" stroke-opacity="0.7"/>
  <path d="M 150.0 306 L 150.0 300.8 L 188.08333333333331 295.6 L 226.16666666666666 290.4 L 264.25 280.0 L 302.3333333333333 269.6 L 340.4166666666667 259.2 L 378.5 254.0 L 416.58333333333337 254.0 L 454.66666666666663 254.0 L 492.75 259.2 L 530.8333333333334 264.4 L 568.9166666666666 269.6 L 607.0 274.8 L 645.0833333333333 280.0 L 683.1666666666667 280.0 L 721.25 285.2 L 759.3333333333333 285.2 L 797.4166666666667 285.2 L 835.5 285.2 L 873.5833333333333 285.2 L 911.6666666666667 290.4 L 949.75 290.4 L 987.8333333333333 290.4 L 1025.9166666666667 290.4 L 1064.0 290.4 L 1064.0 306 Z" fill="#1F2937" fill-opacity="0.45" stroke="#1F2937" stroke-width="1" stroke-opacity="0.7"/>
  <path d="M 150.0 306 L 150.0 306 L 188.08333333333331 306 L 226.16666666666666 306 L 264.25 306 L 302.3333333333333 306 L 340.4166666666667 306 L 378.5 295.6 L 416.58333333333337 285.2 L 454.66666666666663 274.8 L 492.75 264.4 L 530.8333333333334 259.2 L 568.9166666666666 254.0 L 607.0 254.0 L 645.0833333333333 254.0 L 683.1666666666667 259.2 L 721.25 269.6 L 759.3333333333333 280.0 L 797.4166666666667 285.2 L 835.5 290.4 L 873.5833333333333 290.4 L 911.6666666666667 295.6 L 949.75 295.6 L 987.8333333333333 295.6 L 1025.9166666666667 295.6 L 1064.0 295.6 L 1064.0 306 Z" fill="#FACC15" fill-opacity="0.45" stroke="#FACC15" stroke-width="1" stroke-opacity="0.7"/>
  <path d="M 150.0 370 L 150.0 370 L 188.08333333333331 370 L 226.16666666666666 370 L 264.25 370 L 302.3333333333333 364.8 L 340.4166666666667 359.6 L 378.5 349.2 L 416.58333333333337 338.8 L 454.66666666666663 328.4 L 492.75 323.2 L 530.8333333333334 323.2 L 568.9166666666666 323.2 L 607.0 328.4 L 645.0833333333333 333.6 L 683.1666666666667 338.8 L 721.25 344.0 L 759.3333333333333 349.2 L 797.4166666666667 354.4 L 835.5 354.4 L 873.5833333333333 354.4 L 911.6666666666667 359.6 L 949.75 359.6 L 987.8333333333333 359.6 L 1025.9166666666667 359.6 L 1064.0 359.6 L 1064.0 370 Z" fill="#1F2937" fill-opacity="0.45" stroke="#1F2937" stroke-width="1" stroke-opacity="0.7"/>
  <path d="M 150.0 370 L 150.0 370 L 188.08333333333331 370 L 226.16666666666666 370 L 264.25 370 L 302.3333333333333 370 L 340.4166666666667 370 L 378.5 370 L 416.58333333333337 370 L 454.66666666666663 364.8 L 492.75 359.6 L 530.8333333333334 349.2 L 568.9166666666666 338.8 L 607.0 328.4 L 645.0833333333333 323.2 L 683.1666666666667 323.2 L 721.25 328.4 L 759.3333333333333 338.8 L 797.4166666666667 349.2 L 835.5 354.4 L 873.5833333333333 359.6 L 911.6666666666667 359.6 L 949.75 359.6 L 987.8333333333333 359.6 L 1025.9166666666667 359.6 L 1064.0 359.6 L 1064.0 370 Z" fill="#FACC15" fill-opacity="0.45" stroke="#FACC15" stroke-width="1" stroke-opacity="0.7"/>
  <path d="M 150.0 434 L 150.0 434 L 188.08333333333331 434 L 226.16666666666666 434 L 264.25 434 L 302.3333333333333 434 L 340.4166666666667 434 L 378.5 434 L 416.58333333333337 428.8 L 454.66666666666663 418.4 L 492.75 408.0 L 530.8333333333334 397.6 L 568.9166666666666 387.2 L 607.0 382.0 L 645.0833333333333 382.0 L 683.1666666666667 382.0 L 721.25 387.2 L 759.3333333333333 392.4 L 797.4166666666667 402.8 L 835.5 413.2 L 873.5833333333333 418.4 L 911.6666666666667 423.6 L 949.75 423.6 L 987.8333333333333 423.6 L 1025.9166666666667 423.6 L 1064.0 423.6 L 1064.0 434 Z" fill="#1F2937" fill-opacity="0.45" stroke="#1F2937" stroke-width="1" stroke-opacity="0.7"/>
  <path d="M 150.0 434 L 150.0 434 L 188.08333333333331 434 L 226.16666666666666 434 L 264.25 434 L 302.3333333333333 434 L 340.4166666666667 434 L 378.5 434 L 416.58333333333337 434 L 454.66666666666663 434 L 492.75 434 L 530.8333333333334 434 L 568.9166666666666 423.6 L 607.0 413.2 L 645.0833333333333 402.8 L 683.1666666666667 392.4 L 721.25 387.2 L 759.3333333333333 382.0 L 797.4166666666667 382.0 L 835.5 392.4 L 873.5833333333333 408.0 L 911.6666666666667 418.4 L 949.75 423.6 L 987.8333333333333 423.6 L 1025.9166666666667 423.6 L 1064.0 423.6 L 1064.0 434 Z" fill="#FACC15" fill-opacity="0.45" stroke="#FACC15" stroke-width="1" stroke-opacity="0.7"/>
  <path d="M 150.0 498 L 150.0 498 L 188.08333333333331 498 L 226.16666666666666 498 L 264.25 498 L 302.3333333333333 498 L 340.4166666666667 498 L 378.5 498 L 416.58333333333337 498 L 454.66666666666663 498 L 492.75 498 L 530.8333333333334 498 L 568.9166666666666 498 L 607.0 498 L 645.0833333333333 492.8 L 683.1666666666667 482.4 L 721.25 466.8 L 759.3333333333333 451.2 L 797.4166666666667 446.0 L 835.5 446.0 L 873.5833333333333 472.0 L 911.6666666666667 492.8 L 949.75 492.8 L 987.8333333333333 492.8 L 1025.9166666666667 492.8 L 1064.0 492.8 L 1064.0 498 Z" fill="#1F2937" fill-opacity="0.45" stroke="#1F2937" stroke-width="1" stroke-opacity="0.7"/>
  <path d="M 150.0 498 L 150.0 498 L 188.08333333333331 498 L 226.16666666666666 498 L 264.25 498 L 302.3333333333333 498 L 340.4166666666667 498 L 378.5 498 L 416.58333333333337 498 L 454.66666666666663 498 L 492.75 498 L 530.8333333333334 498 L 568.9166666666666 498 L 607.0 498 L 645.0833333333333 498 L 683.1666666666667 498 L 721.25 487.6 L 759.3333333333333 472.0 L 797.4166666666667 456.4 L 835.5 451.2 L 873.5833333333333 477.2 L 911.6666666666667 492.8 L 949.75 492.8 L 987.8333333333333 492.8 L 1025.9166666666667 492.8 L 1064.0 492.8 L 1064.0 498 Z" fill="#FACC15" fill-opacity="0.45" stroke="#FACC15" stroke-width="1" stroke-opacity="0.7"/>
  <path d="M 150.0 562 L 150.0 562 L 188.08333333333331 562 L 226.16666666666666 562 L 264.25 562 L 302.3333333333333 562 L 340.4166666666667 562 L 378.5 562 L 416.58333333333337 562 L 454.66666666666663 562 L 492.75 562 L 530.8333333333334 562 L 568.9166666666666 562 L 607.0 562 L 645.0833333333333 562 L 683.1666666666667 562 L 721.25 562 L 759.3333333333333 562 L 797.4166666666667 562 L 835.5 562 L 873.5833333333333 562 L 911.6666666666667 510.0 L 949.75 562 L 987.8333333333333 562 L 1025.9166666666667 562 L 1064.0 562 L 1064.0 562 Z" fill="#1F2937" fill-opacity="0.45" stroke="#1F2937" stroke-width="1" stroke-opacity="0.7"/>
  <path d="M 150.0 562 L 150.0 562 L 188.08333333333331 562 L 226.16666666666666 562 L 264.25 562 L 302.3333333333333 562 L 340.4166666666667 562 L 378.5 562 L 416.58333333333337 562 L 454.66666666666663 562 L 492.75 562 L 530.8333333333334 562 L 568.9166666666666 562 L 607.0 562 L 645.0833333333333 562 L 683.1666666666667 562 L 721.25 562 L 759.3333333333333 562 L 797.4166666666667 562 L 835.5 562 L 873.5833333333333 562 L 911.6666666666667 510.0 L 949.75 562 L 987.8333333333333 562 L 1025.9166666666667 562 L 1064.0 562 L 1064.0 562 Z" fill="#FACC15" fill-opacity="0.45" stroke="#FACC15" stroke-width="1" stroke-opacity="0.7"/>
  <path d="M 150.0 626 L 150.0 626 L 188.08333333333331 626 L 226.16666666666666 626 L 264.25 626 L 302.3333333333333 626 L 340.4166666666667 626 L 378.5 626 L 416.58333333333337 626 L 454.66666666666663 626 L 492.75 626 L 530.8333333333334 626 L 568.9166666666666 626 L 607.0 626 L 645.0833333333333 626 L 683.1666666666667 626 L 721.25 626 L 759.3333333333333 626 L 797.4166666666667 626 L 835.5 626 L 873.5833333333333 626 L 911.6666666666667 600.0 L 949.75 589.6 L 987.8333333333333 589.6 L 1025.9166666666667 589.6 L 1064.0 589.6 L 1064.0 626 Z" fill="#1F2937" fill-opacity="0.45" stroke="#1F2937" stroke-width="1" stroke-opacity="0.7"/>
  <path d="M 150.0 626 L 150.0 626 L 188.08333333333331 626 L 226.16666666666666 626 L 264.25 626 L 302.3333333333333 626 L 340.4166666666667 626 L 378.5 626 L 416.58333333333337 626 L 454.66666666666663 626 L 492.75 626 L 530.8333333333334 626 L 568.9166666666666 626 L 607.0 626 L 645.0833333333333 626 L 683.1666666666667 626 L 721.25 626 L 759.3333333333333 626 L 797.4166666666667 626 L 835.5 626 L 873.5833333333333 626 L 911.6666666666667 605.2 L 949.75 594.8 L 987.8333333333333 594.8 L 1025.9166666666667 594.8 L 1064.0 594.8 L 1064.0 626 Z" fill="#FACC15" fill-opacity="0.45" stroke="#FACC15" stroke-width="1" stroke-opacity="0.7"/>
  <line x1="911.6666666666667" y1="114" x2="911.6666666666667" y2="636" stroke="#FACC15" stroke-width="2.5"/>
  <circle cx="911.6666666666667" cy="110" r="4" fill="#FACC15"/>
  <text x="911.6666666666667" y="104" text-anchor="middle" font-weight="700" font-size="11" fill="#1F2937" font-family="system-ui, -apple-system, sans-serif">Go-live · Sep 1, 2028</text>
  <line x1="150" y1="632" x2="1064" y2="632" stroke="#1F2937" stroke-width="1"/>
  <line x1="150.0" y1="632" x2="150.0" y2="638" stroke="#1F2937" stroke-width="1"/>
  <line x1="150.0" y1="120" x2="150.0" y2="632" stroke="#E5E4DD" stroke-width="1" stroke-dasharray="2,3"/>
  <text x="150.0" y="652" text-anchor="middle" font-weight="500" font-size="11" fill="#6B6860" font-family="system-ui, -apple-system, sans-serif">Jan '27</text>
  <line x1="264.25" y1="632" x2="264.25" y2="638" stroke="#1F2937" stroke-width="1"/>
  <line x1="264.25" y1="120" x2="264.25" y2="632" stroke="#E5E4DD" stroke-width="1" stroke-dasharray="2,3"/>
  <text x="264.25" y="652" text-anchor="middle" font-weight="500" font-size="11" fill="#6B6860" font-family="system-ui, -apple-system, sans-serif">Apr '27</text>
  <line x1="378.5" y1="632" x2="378.5" y2="638" stroke="#1F2937" stroke-width="1"/>
  <line x1="378.5" y1="120" x2="378.5" y2="632" stroke="#E5E4DD" stroke-width="1" stroke-dasharray="2,3"/>
  <text x="378.5" y="652" text-anchor="middle" font-weight="500" font-size="11" fill="#6B6860" font-family="system-ui, -apple-system, sans-serif">Jul '27</text>
  <line x1="492.75" y1="632" x2="492.75" y2="638" stroke="#1F2937" stroke-width="1"/>
  <line x1="492.75" y1="120" x2="492.75" y2="632" stroke="#E5E4DD" stroke-width="1" stroke-dasharray="2,3"/>
  <text x="492.75" y="652" text-anchor="middle" font-weight="500" font-size="11" fill="#6B6860" font-family="system-ui, -apple-system, sans-serif">Oct '27</text>
  <line x1="607.0" y1="632" x2="607.0" y2="638" stroke="#1F2937" stroke-width="1"/>
  <line x1="607.0" y1="120" x2="607.0" y2="632" stroke="#E5E4DD" stroke-width="1" stroke-dasharray="2,3"/>
  <text x="607.0" y="652" text-anchor="middle" font-weight="500" font-size="11" fill="#6B6860" font-family="system-ui, -apple-system, sans-serif">Jan '28</text>
  <line x1="721.25" y1="632" x2="721.25" y2="638" stroke="#1F2937" stroke-width="1"/>
  <line x1="721.25" y1="120" x2="721.25" y2="632" stroke="#E5E4DD" stroke-width="1" stroke-dasharray="2,3"/>
  <text x="721.25" y="652" text-anchor="middle" font-weight="500" font-size="11" fill="#6B6860" font-family="system-ui, -apple-system, sans-serif">Apr '28</text>
  <line x1="835.5" y1="632" x2="835.5" y2="638" stroke="#1F2937" stroke-width="1"/>
  <line x1="835.5" y1="120" x2="835.5" y2="632" stroke="#E5E4DD" stroke-width="1" stroke-dasharray="2,3"/>
  <text x="835.5" y="652" text-anchor="middle" font-weight="500" font-size="11" fill="#6B6860" font-family="system-ui, -apple-system, sans-serif">Jul '28</text>
  <line x1="949.75" y1="632" x2="949.75" y2="638" stroke="#1F2937" stroke-width="1"/>
  <line x1="949.75" y1="120" x2="949.75" y2="632" stroke="#E5E4DD" stroke-width="1" stroke-dasharray="2,3"/>
  <text x="949.75" y="652" text-anchor="middle" font-weight="500" font-size="11" fill="#6B6860" font-family="system-ui, -apple-system, sans-serif">Oct '28</text>
  <line x1="1064.0" y1="632" x2="1064.0" y2="638" stroke="#1F2937" stroke-width="1"/>
  <line x1="1064.0" y1="120" x2="1064.0" y2="632" stroke="#E5E4DD" stroke-width="1" stroke-dasharray="2,3"/>
  <text x="1064.0" y="652" text-anchor="middle" font-weight="500" font-size="11" fill="#6B6860" font-family="system-ui, -apple-system, sans-serif">Jan '29</text>
  <line x1="150.0" y1="638" x2="150.0" y2="642" stroke="#6B6860" stroke-width="0.7" opacity="0.5"/>
  <line x1="167.51676933607118" y1="638" x2="167.51676933607118" y2="642" stroke="#6B6860" stroke-width="0.7" opacity="0.5"/>
  <line x1="185.03353867214236" y1="638" x2="185.03353867214236" y2="642" stroke="#6B6860" stroke-width="0.7" opacity="0.5"/>
  <line x1="202.55030800821356" y1="638" x2="202.55030800821356" y2="642" stroke="#6B6860" stroke-width="0.7" opacity="0.5"/>
  <line x1="220.0670773442847" y1="638" x2="220.0670773442847" y2="642" stroke="#6B6860" stroke-width="0.7" opacity="0.5"/>
  <line x1="237.58384668035592" y1="638" x2="237.58384668035592" y2="642" stroke="#6B6860" stroke-width="0.7" opacity="0.5"/>
  <line x1="255.1006160164271" y1="638" x2="255.1006160164271" y2="642" stroke="#6B6860" stroke-width="0.7" opacity="0.5"/>
  <line x1="272.6173853524983" y1="638" x2="272.6173853524983" y2="642" stroke="#6B6860" stroke-width="0.7" opacity="0.5"/>
  <line x1="290.1341546885694" y1="638" x2="290.1341546885694" y2="642" stroke="#6B6860" stroke-width="0.7" opacity="0.5"/>
  <line x1="307.65092402464063" y1="638" x2="307.65092402464063" y2="642" stroke="#6B6860" stroke-width="0.7" opacity="0.5"/>
  <line x1="325.16769336071184" y1="638" x2="325.16769336071184" y2="642" stroke="#6B6860" stroke-width="0.7" opacity="0.5"/>
  <line x1="342.68446269678304" y1="638" x2="342.68446269678304" y2="642" stroke="#6B6860" stroke-width="0.7" opacity="0.5"/>
  <line x1="360.2012320328542" y1="638" x2="360.2012320328542" y2="642" stroke="#6B6860" stroke-width="0.7" opacity="0.5"/>
  <line x1="377.71800136892534" y1="638" x2="377.71800136892534" y2="642" stroke="#6B6860" stroke-width="0.7" opacity="0.5"/>
  <line x1="395.23477070499655" y1="638" x2="395.23477070499655" y2="642" stroke="#6B6860" stroke-width="0.7" opacity="0.5"/>
  <line x1="412.75154004106776" y1="638" x2="412.75154004106776" y2="642" stroke="#6B6860" stroke-width="0.7" opacity="0.5"/>
  <line x1="430.2683093771389" y1="638" x2="430.2683093771389" y2="642" stroke="#6B6860" stroke-width="0.7" opacity="0.5"/>
  <line x1="447.78507871321017" y1="638" x2="447.78507871321017" y2="642" stroke="#6B6860" stroke-width="0.7" opacity="0.5"/>
  <line x1="465.3018480492813" y1="638" x2="465.3018480492813" y2="642" stroke="#6B6860" stroke-width="0.7" opacity="0.5"/>
  <line x1="482.81861738535247" y1="638" x2="482.81861738535247" y2="642" stroke="#6B6860" stroke-width="0.7" opacity="0.5"/>
  <line x1="500.3353867214237" y1="638" x2="500.3353867214237" y2="642" stroke="#6B6860" stroke-width="0.7" opacity="0.5"/>
  <line x1="517.8521560574948" y1="638" x2="517.8521560574948" y2="642" stroke="#6B6860" stroke-width="0.7" opacity="0.5"/>
  <line x1="535.3689253935661" y1="638" x2="535.3689253935661" y2="642" stroke="#6B6860" stroke-width="0.7" opacity="0.5"/>
  <line x1="552.8856947296372" y1="638" x2="552.8856947296372" y2="642" stroke="#6B6860" stroke-width="0.7" opacity="0.5"/>
  <line x1="570.4024640657084" y1="638" x2="570.4024640657084" y2="642" stroke="#6B6860" stroke-width="0.7" opacity="0.5"/>
  <line x1="587.9192334017796" y1="638" x2="587.9192334017796" y2="642" stroke="#6B6860" stroke-width="0.7" opacity="0.5"/>
  <line x1="605.4360027378507" y1="638" x2="605.4360027378507" y2="642" stroke="#6B6860" stroke-width="0.7" opacity="0.5"/>
  <line x1="622.952772073922" y1="638" x2="622.952772073922" y2="642" stroke="#6B6860" stroke-width="0.7" opacity="0.5"/>
  <line x1="640.4695414099931" y1="638" x2="640.4695414099931" y2="642" stroke="#6B6860" stroke-width="0.7" opacity="0.5"/>
  <line x1="657.9863107460643" y1="638" x2="657.9863107460643" y2="642" stroke="#6B6860" stroke-width="0.7" opacity="0.5"/>
  <line x1="675.5030800821355" y1="638" x2="675.5030800821355" y2="642" stroke="#6B6860" stroke-width="0.7" opacity="0.5"/>
  <line x1="693.0198494182067" y1="638" x2="693.0198494182067" y2="642" stroke="#6B6860" stroke-width="0.7" opacity="0.5"/>
  <line x1="710.5366187542778" y1="638" x2="710.5366187542778" y2="642" stroke="#6B6860" stroke-width="0.7" opacity="0.5"/>
  <line x1="728.053388090349" y1="638" x2="728.053388090349" y2="642" stroke="#6B6860" stroke-width="0.7" opacity="0.5"/>
  <line x1="745.5701574264203" y1="638" x2="745.5701574264203" y2="642" stroke="#6B6860" stroke-width="0.7" opacity="0.5"/>
  <line x1="763.0869267624913" y1="638" x2="763.0869267624913" y2="642" stroke="#6B6860" stroke-width="0.7" opacity="0.5"/>
  <line x1="780.6036960985626" y1="638" x2="780.6036960985626" y2="642" stroke="#6B6860" stroke-width="0.7" opacity="0.5"/>
  <line x1="798.120465434634" y1="638" x2="798.120465434634" y2="642" stroke="#6B6860" stroke-width="0.7" opacity="0.5"/>
  <line x1="815.6372347707049" y1="638" x2="815.6372347707049" y2="642" stroke="#6B6860" stroke-width="0.7" opacity="0.5"/>
  <line x1="833.1540041067763" y1="638" x2="833.1540041067763" y2="642" stroke="#6B6860" stroke-width="0.7" opacity="0.5"/>
  <line x1="850.6707734428473" y1="638" x2="850.6707734428473" y2="642" stroke="#6B6860" stroke-width="0.7" opacity="0.5"/>
  <line x1="868.1875427789186" y1="638" x2="868.1875427789186" y2="642" stroke="#6B6860" stroke-width="0.7" opacity="0.5"/>
  <line x1="885.7043121149896" y1="638" x2="885.7043121149896" y2="642" stroke="#6B6860" stroke-width="0.7" opacity="0.5"/>
  <line x1="903.221081451061" y1="638" x2="903.221081451061" y2="642" stroke="#6B6860" stroke-width="0.7" opacity="0.5"/>
  <line x1="920.7378507871322" y1="638" x2="920.7378507871322" y2="642" stroke="#6B6860" stroke-width="0.7" opacity="0.5"/>
  <line x1="938.2546201232033" y1="638" x2="938.2546201232033" y2="642" stroke="#6B6860" stroke-width="0.7" opacity="0.5"/>
  <line x1="955.7713894592745" y1="638" x2="955.7713894592745" y2="642" stroke="#6B6860" stroke-width="0.7" opacity="0.5"/>
  <line x1="973.2881587953457" y1="638" x2="973.2881587953457" y2="642" stroke="#6B6860" stroke-width="0.7" opacity="0.5"/>
  <line x1="990.8049281314168" y1="638" x2="990.8049281314168" y2="642" stroke="#6B6860" stroke-width="0.7" opacity="0.5"/>
  <line x1="1008.321697467488" y1="638" x2="1008.321697467488" y2="642" stroke="#6B6860" stroke-width="0.7" opacity="0.5"/>
  <line x1="1025.8384668035592" y1="638" x2="1025.8384668035592" y2="642" stroke="#6B6860" stroke-width="0.7" opacity="0.5"/>
  <line x1="1043.3552361396305" y1="638" x2="1043.3552361396305" y2="642" stroke="#6B6860" stroke-width="0.7" opacity="0.5"/>
  <line x1="1060.8720054757014" y1="638" x2="1060.8720054757014" y2="642" stroke="#6B6860" stroke-width="0.7" opacity="0.5"/>
  <text x="150" y="682" text-anchor="start" font-style="italic" font-size="10" fill="#6B6860" font-family="Georgia, 'Times New Roman', serif">14-day sprints · ~52 sprints over 24-month engagement window</text>
  <rect x="150" y="696" width="914" height="44" fill="#FACC15" fill-opacity="0.08" stroke="#FACC15" stroke-width="1" stroke-opacity="0.5" rx="6"/>
  <path d="M 1034 704 Q 964 736 607.0 736 Q 250 736 180 704" fill="none" stroke="#FACC15" stroke-width="2.5" stroke-dasharray="6 4" marker-end="url(#av07-ci-loop-arrow)"/>
  <text x="607.0" y="714.0" text-anchor="middle" font-weight="900" font-size="11" fill="#1F2937" letter-spacing="3" font-family="'Helvetica Neue', 'Arial Black', Impact, system-ui, sans-serif">◆ CI/CD BY DESIGN ◆</text>
  <text x="607.0" y="730.0" text-anchor="middle" font-style="italic" font-size="10" fill="#6B6860" font-family="Georgia, 'Times New Roman', serif">stable state opens next build plan (operator-led) · the engagement doesn't end at go-live</text>
  <text x="1028" y="700" text-anchor="end" font-weight="700" font-size="9" fill="#1F2937" font-family="system-ui, -apple-system, sans-serif">stable state →</text>
  <text x="186" y="700" text-anchor="start" font-weight="700" font-size="9" fill="#1F2937" font-family="system-ui, -apple-system, sans-serif">→ next build plan</text>
  <line x1="200" y1="768" x2="900" y2="768" stroke="#7A756A" stroke-width="0.8"/>
  <text x="550.0" y="788" text-anchor="middle" font-style="italic" font-size="12" fill="#6B6860" font-family="Georgia, 'Times New Roman', serif">Framework holds across portfolios · density redistributes under agentics · the engagement doesn't end at go-live.</text>
</svg>
