<svg xmlns="http://www.w3.org/2000/svg" viewBox="0 0 200 200" role="img" aria-labelledby="t d">
  <title id="t">THE RIG mark v0.4</title>
  <desc id="d">THE RIG mark v0.4 (locked 2026-05-20): current-gate loop with three squid S-curl legs and a single teal human-in-the-middle dot centered in the loop. Architecture pills dropped for low-res clarity. Navy frame, teal HITM dot.</desc>
  <path d="M48 40H140C156 40 168 52 168 68V80H150V68C150 62 146 58 140 58H66V106H48Z" fill="#0f172a"/>
  <path d="M152 82H182L166 112Z" fill="#0f172a"/>
  <path d="M154 116H62C45 116 32 103 32 87V74H50V87C50 94 55 98 62 98H154Z" fill="#0f172a"/>
  <rect x="54" y="117" width="90" height="14" rx="4" fill="#0f172a"/>
  <path d="M70 131 C 58 149 84 162 64 182" fill="none" stroke="#0f172a" stroke-width="15" stroke-linecap="round"/>
  <path d="M102 131 C 95 150 109 166 100 184" fill="none" stroke="#0f172a" stroke-width="15" stroke-linecap="round"/>
  <path d="M134 131 C 146 149 120 162 140 182" fill="none" stroke="#0f172a" stroke-width="15" stroke-linecap="round"/>
  <circle cx="108" cy="78" r="8.5" fill="#0ea5b7"/>
</svg>
